<svg width="18" height="18" viewBox="0 0 18 18" fill="none" xmlns="http://www.w3.org/2000/svg">
<path d="M16.5038 9.76679L17.981 3.26838C18.0877 2.79918 17.731 2.35239 17.2497 2.35239H4.97525L4.68881 0.952416C4.61744 0.60347 4.31031 0.352875 3.95403 0.352875H0.75C0.335781 0.352875 0 0.688574 0 1.10269V1.60257C0 2.01669 0.335781 2.35239 0.75 2.35239H2.93384L5.1291 13.0821C4.60391 13.3841 4.25 13.9502 4.25 14.5994C4.25 15.5657 5.0335 16.349 6 16.349C6.9665 16.349 7.75 15.5657 7.75 14.5994C7.75 14.1097 7.54853 13.6673 7.22425 13.3497H13.7757C13.4515 13.6673 13.25 14.1097 13.25 14.5994C13.25 15.5657 14.0335 16.349 15 16.349C15.9665 16.349 16.75 15.5657 16.75 14.5994C16.75 13.9067 16.3473 13.3081 15.7632 13.0246L15.9356 12.2662C16.0422 11.797 15.6855 11.3502 15.2042 11.3502H6.81616L6.61163 10.3504H15.7724C16.1226 10.3504 16.4262 10.1082 16.5038 9.76679Z" fill="#83868F"/>
<mask id="mask0_0_68" style="mask-type:alpha" maskUnits="userSpaceOnUse" x="0" y="0" width="18" height="17">
<path d="M16.5038 9.76679L17.981 3.26838C18.0877 2.79918 17.731 2.35239 17.2497 2.35239H4.97525L4.68881 0.952416C4.61744 0.60347 4.31031 0.352875 3.95403 0.352875H0.75C0.335781 0.352875 0 0.688574 0 1.10269V1.60257C0 2.01669 0.335781 2.35239 0.75 2.35239H2.93384L5.1291 13.0821C4.60391 13.3841 4.25 13.9502 4.25 14.5994C4.25 15.5657 5.0335 16.349 6 16.349C6.9665 16.349 7.75 15.5657 7.75 14.5994C7.75 14.1097 7.54853 13.6673 7.22425 13.3497H13.7757C13.4515 13.6673 13.25 14.1097 13.25 14.5994C13.25 15.5657 14.0335 16.349 15 16.349C15.9665 16.349 16.75 15.5657 16.75 14.5994C16.75 13.9067 16.3473 13.3081 15.7632 13.0246L15.9356 12.2662C16.0422 11.797 15.6855 11.3502 15.2042 11.3502H6.81616L6.61163 10.3504H15.7724C16.1226 10.3504 16.4262 10.1082 16.5038 9.76679Z" fill="white"/>
</mask>
<g mask="url(#mask0_0_68)">
</g>
</svg>
