<svg width="18" height="18" viewBox="0 0 18 18" fill="none" xmlns="http://www.w3.org/2000/svg">
<path fill-rule="evenodd" clip-rule="evenodd" d="M9.02324 0.281531C10.3223 1.66943 11.1132 3.73781 11.4886 5.625H6.51143C6.88613 3.7414 7.67556 1.67171 8.97676 0.281531L9 0.28125L9.02324 0.281531ZM17.0413 5.625H12.6332C12.2966 3.81118 11.6433 1.94045 10.5803 0.424512C13.5045 0.959941 15.9188 2.95397 17.0413 5.625ZM12.8044 6.75H17.425C17.6162 7.46786 17.7187 8.22192 17.7187 9C17.7187 9.77808 17.6162 10.5321 17.425 11.25H12.8044C12.9856 9.73656 12.9781 8.20034 12.8044 6.75ZM6.51143 12.375C6.88683 14.2622 7.67767 16.3306 8.97676 17.7185L9 17.7188L9.02324 17.7185C10.3244 16.3283 11.1139 14.2586 11.4886 12.375H6.51143ZM11.6717 11.25C11.8594 9.77643 11.8596 8.22526 11.6717 6.75H6.32834C6.14064 8.22354 6.14043 9.77474 6.32834 11.25H11.6717ZM0.958746 12.375H5.36681C5.70326 14.1882 6.35636 16.059 7.41969 17.5755C4.49546 17.0401 2.08114 15.046 0.958746 12.375ZM12.6332 12.375C12.2966 14.1892 11.6431 16.0599 10.5803 17.5755C13.5045 17.0401 15.9188 15.046 17.0412 12.375H12.6332ZM0.57498 6.75C0.38373 7.46786 0.28125 8.22192 0.28125 9C0.28125 9.77808 0.38373 10.5321 0.57498 11.25H5.19557C5.02193 9.79966 5.01437 8.26344 5.19557 6.75H0.57498ZM7.41973 0.424512C6.35685 1.94027 5.70343 3.81087 5.36681 5.625H0.958746C2.08118 2.95397 4.4955 0.959941 7.41973 0.424512Z" fill="#83868F"/>
<mask id="mask0_0_47" style="mask-type:alpha" maskUnits="userSpaceOnUse" x="0" y="0" width="18" height="18">
<path fill-rule="evenodd" clip-rule="evenodd" d="M9.02324 0.281531C10.3223 1.66943 11.1132 3.73781 11.4886 5.625H6.51143C6.88613 3.7414 7.67556 1.67171 8.97676 0.281531L9 0.28125L9.02324 0.281531ZM17.0413 5.625H12.6332C12.2966 3.81118 11.6433 1.94045 10.5803 0.424512C13.5045 0.959941 15.9188 2.95397 17.0413 5.625ZM12.8044 6.75H17.425C17.6162 7.46786 17.7187 8.22192 17.7187 9C17.7187 9.77808 17.6162 10.5321 17.425 11.25H12.8044C12.9856 9.73656 12.9781 8.20034 12.8044 6.75ZM6.51143 12.375C6.88683 14.2622 7.67767 16.3306 8.97676 17.7185L9 17.7188L9.02324 17.7185C10.3244 16.3283 11.1139 14.2586 11.4886 12.375H6.51143ZM11.6717 11.25C11.8594 9.77643 11.8596 8.22526 11.6717 6.75H6.32834C6.14064 8.22354 6.14043 9.77474 6.32834 11.25H11.6717ZM0.958746 12.375H5.36681C5.70326 14.1882 6.35636 16.059 7.41969 17.5755C4.49546 17.0401 2.08114 15.046 0.958746 12.375ZM12.6332 12.375C12.2966 14.1892 11.6431 16.0599 10.5803 17.5755C13.5045 17.0401 15.9188 15.046 17.0412 12.375H12.6332ZM0.57498 6.75C0.38373 7.46786 0.28125 8.22192 0.28125 9C0.28125 9.77808 0.38373 10.5321 0.57498 11.25H5.19557C5.02193 9.79966 5.01437 8.26344 5.19557 6.75H0.57498ZM7.41973 0.424512C6.35685 1.94027 5.70343 3.81087 5.36681 5.625H0.958746C2.08118 2.95397 4.4955 0.959941 7.41973 0.424512Z" fill="white"/>
</mask>
<g mask="url(#mask0_0_47)">
</g>
</svg>
