<svg width="14" height="18" viewBox="0 0 14 18" fill="none" xmlns="http://www.w3.org/2000/svg">
<path fill-rule="evenodd" clip-rule="evenodd" d="M3.95194 14.26C4.61655 15.2068 5.39526 16.3161 6.3063 17.6368C6.64148 18.121 7.35849 18.1211 7.6937 17.6368C8.60474 16.3161 9.38345 15.2068 10.0481 14.26C13.1099 9.89807 13.75 8.98616 13.75 6.75C13.75 3.02207 10.7279 0 7 0C3.27207 0 0.25 3.02207 0.25 6.75C0.25 8.98616 0.890114 9.89807 3.95194 14.26ZM9.8125 6.75C9.8125 8.30331 8.55331 9.5625 7 9.5625C5.44669 9.5625 4.1875 8.30331 4.1875 6.75C4.1875 5.19669 5.44669 3.9375 7 3.9375C8.55331 3.9375 9.8125 5.19669 9.8125 6.75Z" fill="#83868F"/>
<mask id="mask0_0_78" style="mask-type:alpha" maskUnits="userSpaceOnUse" x="0" y="0" width="14" height="18">
<path fill-rule="evenodd" clip-rule="evenodd" d="M3.95194 14.26C4.61655 15.2068 5.39526 16.3161 6.3063 17.6368C6.64148 18.121 7.35849 18.1211 7.6937 17.6368C8.60474 16.3161 9.38345 15.2068 10.0481 14.26C13.1099 9.89807 13.75 8.98616 13.75 6.75C13.75 3.02207 10.7279 0 7 0C3.27207 0 0.25 3.02207 0.25 6.75C0.25 8.98616 0.890114 9.89807 3.95194 14.26ZM9.8125 6.75C9.8125 8.30331 8.55331 9.5625 7 9.5625C5.44669 9.5625 4.1875 8.30331 4.1875 6.75C4.1875 5.19669 5.44669 3.9375 7 3.9375C8.55331 3.9375 9.8125 5.19669 9.8125 6.75Z" fill="white"/>
</mask>
<g mask="url(#mask0_0_78)">
</g>
</svg>
