<svg width="18" height="19" viewBox="0 0 18 19" fill="none" xmlns="http://www.w3.org/2000/svg">
<path fill-rule="evenodd" clip-rule="evenodd" d="M14.2488 12.0586L17.7539 15.5637C18.0809 15.8941 18.0809 16.4285 17.7504 16.759L16.7555 17.7539C16.4285 18.0844 15.8941 18.0844 15.5637 17.7539L12.0586 14.2488C11.9004 14.0906 11.8125 13.8762 11.8125 13.6512V13.0781C10.5715 14.0484 9.01055 14.625 7.3125 14.625C3.27305 14.625 0 11.352 0 7.3125C0 3.27305 3.27305 0 7.3125 0C11.352 0 14.625 3.27305 14.625 7.3125C14.625 9.01055 14.0484 10.5715 13.0781 11.8125H13.6512C13.8762 11.8125 14.0906 11.9004 14.2488 12.0586ZM2.8125 7.3125C2.8125 9.80156 4.82695 11.8125 7.3125 11.8125C9.80156 11.8125 11.8125 9.79805 11.8125 7.3125C11.8125 4.82344 9.79805 2.8125 7.3125 2.8125C4.82344 2.8125 2.8125 4.82695 2.8125 7.3125Z" fill="#83868F"/>
<mask id="mask0_0_71" style="mask-type:alpha" maskUnits="userSpaceOnUse" x="0" y="0" width="18" height="19">
<path fill-rule="evenodd" clip-rule="evenodd" d="M14.2488 12.0586L17.7539 15.5637C18.0809 15.8941 18.0809 16.4285 17.7504 16.759L16.7555 17.7539C16.4285 18.0844 15.8941 18.0844 15.5637 17.7539L12.0586 14.2488C11.9004 14.0906 11.8125 13.8762 11.8125 13.6512V13.0781C10.5715 14.0484 9.01055 14.625 7.3125 14.625C3.27305 14.625 0 11.352 0 7.3125C0 3.27305 3.27305 0 7.3125 0C11.352 0 14.625 3.27305 14.625 7.3125C14.625 9.01055 14.0484 10.5715 13.0781 11.8125H13.6512C13.8762 11.8125 14.0906 11.9004 14.2488 12.0586ZM2.8125 7.3125C2.8125 9.80156 4.82695 11.8125 7.3125 11.8125C9.80156 11.8125 11.8125 9.79805 11.8125 7.3125C11.8125 4.82344 9.79805 2.8125 7.3125 2.8125C4.82344 2.8125 2.8125 4.82695 2.8125 7.3125Z" fill="white"/>
</mask>
<g mask="url(#mask0_0_71)">
</g>
</svg>
